<svg xmlns="http://www.w3.org/2000/svg" width="640" height="480" viewBox="0 0 640 480" fill="none">
  <defs><linearGradient id="bg" x1="70" y1="35" x2="580" y2="450" gradientUnits="userSpaceOnUse"><stop stop-color="#292929"/><stop offset="1" stop-color="#171717"/></linearGradient></defs>
  <rect x="12" y="12" width="616" height="456" rx="32" fill="url(#bg)" stroke="#454545"/>
  <circle cx="500" cy="110" r="66" fill="#FF7A00" fill-opacity=".08"/>
  <rect x="176" y="69" width="288" height="346" rx="22" fill="#1B1B1B" stroke="#676767" stroke-width="3"/>
  <rect x="207" y="102" width="82" height="82" rx="18" fill="#FF7A00" fill-opacity=".16" stroke="#FF7A00" stroke-opacity=".65" stroke-width="2"/>
  <circle cx="248" cy="131" r="17" fill="#FF9A3D" fill-opacity=".82"/>
  <path d="M220 166c5-16 15-23 28-23s23 7 28 23" stroke="#FF9A3D" stroke-width="7" stroke-linecap="round"/>
  <rect x="310" y="112" width="113" height="12" rx="6" fill="#F2F2F2" fill-opacity=".82"/>
  <rect x="310" y="137" width="85" height="9" rx="4.5" fill="#FF9A3D"/>
  <path d="M208 212h224" stroke="#555" stroke-width="2"/>
  <circle cx="219" cy="244" r="7" fill="#FF7A00"/>
  <rect x="240" y="239" width="171" height="9" rx="4.5" fill="#F2F2F2" fill-opacity=".58"/>
  <rect x="240" y="258" width="136" height="7" rx="3.5" fill="#F2F2F2" fill-opacity=".24"/>
  <circle cx="219" cy="293" r="7" fill="#FF7A00"/>
  <rect x="240" y="288" width="171" height="9" rx="4.5" fill="#F2F2F2" fill-opacity=".58"/>
  <rect x="240" y="307" width="155" height="7" rx="3.5" fill="#F2F2F2" fill-opacity=".24"/>
  <circle cx="219" cy="342" r="7" fill="#FF7A00"/>
  <rect x="240" y="337" width="171" height="9" rx="4.5" fill="#F2F2F2" fill-opacity=".58"/>
  <rect x="240" y="356" width="116" height="7" rx="3.5" fill="#F2F2F2" fill-opacity=".24"/>
  <path d="M160 390h320" stroke="#FF7A00" stroke-opacity=".38" stroke-width="3" stroke-linecap="round"/>
</svg>
